<svg xmlns="http://www.w3.org/2000/svg" xmlns:xlink="http://www.w3.org/1999/xlink" width="180" height="58" viewBox="0 0 180 58">
  <defs>
    <path id="logo-tr-a" d="M5.7368984,14.0166667 C5.7368984,14.048889 5.72887709,14.0778888 5.71283422,14.1036667 C5.69679136,14.1294446 5.67272743,14.1455555 5.64064171,14.152 C5.55080169,14.164889 5.42887778,14.1729444 5.27486631,14.1761667 C5.12085484,14.1793889 4.95561586,14.1842222 4.77914439,14.1906667 C4.60267291,14.1971111 4.42459983,14.2003333 4.24491979,14.2003333 L3.76363636,14.2003333 C3.08341906,14.2003333 2.57165947,14.0617792 2.22834225,13.7846667 C1.88502502,13.5075542 1.71336898,13.046781 1.71336898,12.4023333 L1.71336898,8.68066667 C1.71336898,8.036219 1.88502502,7.57544583 2.22834225,7.29833333 C2.57165947,7.02122084 3.08341906,6.88266667 3.76363636,6.88266667 C3.90481354,6.88266667 4.06363548,6.88427776 4.24010695,6.8875 C4.41657842,6.89072224 4.59144298,6.89394443 4.76470588,6.89716667 C4.93796878,6.9003889 5.10160351,6.90683328 5.25561497,6.9165 L5.64064171,6.94066667 C5.67272743,6.94711114 5.69679136,6.96322209 5.71283422,6.989 C5.72887709,7.01477791 5.7368984,7.04377762 5.7368984,7.076 L5.7368984,7.55933333 C5.7368984,7.63666705 5.70160463,7.67533333 5.63101604,7.67533333 L3.77326203,7.67533333 C3.51657626,7.67533333 3.31123072,7.69305538 3.15721925,7.7285 C3.00320779,7.76394462 2.8844924,7.82194404 2.80106952,7.9025 C2.71764664,7.98305596 2.66149747,8.08777713 2.63262032,8.21666667 C2.60374317,8.3455562 2.58930481,8.50022132 2.58930481,8.68066667 L2.58930481,10.0243333 L5.54438503,10.0243333 C5.59572218,10.0243333 5.64064152,10.0436665 5.67914439,10.0823333 C5.71764725,10.1210002 5.7368984,10.1661109 5.7368984,10.2176667 L5.7368984,10.585 C5.7368984,10.6365558 5.71764725,10.6816665 5.67914439,10.7203333 C5.64064152,10.7590002 5.59572218,10.7783333 5.54438503,10.7783333 L2.58930481,10.7783333 L2.58930481,12.4023333 C2.58930481,12.5892232 2.60374317,12.7454994 2.63262032,12.8711667 C2.66149747,12.996834 2.71764664,13.099944 2.80106952,13.1805 C2.8844924,13.261056 3.00320779,13.3190554 3.15721925,13.3545 C3.31123072,13.3899446 3.51657626,13.4076667 3.77326203,13.4076667 L5.63101604,13.4076667 C5.70160463,13.4076667 5.7368984,13.4463329 5.7368984,13.5236667 L5.7368984,14.0166667 Z M9.00962567,11.4936667 C9.00962567,11.6032228 8.94866371,11.658 8.82673797,11.658 L6.91122995,11.658 C6.7893042,11.658 6.72834225,11.6032228 6.72834225,11.4936667 L6.72834225,11.1166667 C6.72834225,11.0651109 6.74598913,11.0232224 6.78128342,10.991 C6.81657772,10.9587776 6.85989279,10.9426667 6.91122995,10.9426667 L8.82673797,10.9426667 C8.94866371,10.9426667 9.00962567,11.0006661 9.00962567,11.1166667 L9.00962567,11.4936667 Z M12.9368984,13.9876667 C12.9368984,14.0778893 12.879145,14.1326666 12.7636364,14.152 C12.6673792,14.164889 12.5614979,14.1761666 12.4459893,14.1858333 C12.3304807,14.1955 12.2278079,14.2003333 12.1379679,14.2003333 C11.9133679,14.2003333 11.7192522,14.1826113 11.555615,14.1471667 C11.3919778,14.111722 11.2572198,14.0456671 11.1513369,13.949 C11.045454,13.8523328 10.9652409,13.7202231 10.9106952,13.5526667 C10.8561495,13.3851103 10.828877,13.1692235 10.828877,12.905 L10.828877,9.53133333 L9.89518717,9.425 C9.77326142,9.41211105 9.71229947,9.35411163 9.71229947,9.251 L9.71229947,8.99 C9.71229947,8.87399942 9.77326142,8.816 9.89518717,8.816 L10.828877,8.816 L10.828877,7.86866667 C10.828877,7.75911056 10.8866304,7.69466676 11.002139,7.67533333 L11.5026738,7.598 L11.5315508,7.598 C11.5700537,7.598 11.6037432,7.61249985 11.6326203,7.6415 C11.6614975,7.67050014 11.6759358,7.71077752 11.6759358,7.76233333 L11.6759358,8.816 L12.715508,8.816 C12.7668452,8.816 12.8117645,8.83533314 12.8502674,8.874 C12.8887702,8.91266686 12.9080214,8.95777752 12.9080214,9.00933333 L12.9080214,9.338 C12.9080214,9.38955581 12.8887702,9.43466647 12.8502674,9.47333333 C12.8117645,9.51200019 12.7668452,9.53133333 12.715508,9.53133333 L11.6759358,9.53133333 L11.6759358,12.905 C11.6759358,13.1692235 11.7144381,13.3367774 11.7914439,13.4076667 C11.8684496,13.4785559 12.0032076,13.514 12.1957219,13.514 L12.7347594,13.514 C12.8695194,13.514 12.9368984,13.5591107 12.9368984,13.6493333 L12.9368984,13.9876667 Z M14.8042781,7.772 C14.8042781,7.82355581 14.7850269,7.86866647 14.7465241,7.90733333 C14.7080212,7.94600019 14.6631019,7.96533333 14.6117647,7.96533333 L14.1208556,7.96533333 C14.0695185,7.96533333 14.0245991,7.94600019 13.9860963,7.90733333 C13.9475934,7.86866647 13.9283422,7.82355581 13.9283422,7.772 L13.9283422,6.99866667 C13.9283422,6.94711085 13.9475934,6.90200019 13.9860963,6.86333333 C14.0245991,6.82466647 14.0695185,6.80533333 14.1208556,6.80533333 L14.6117647,6.80533333 C14.6631019,6.80533333 14.7080212,6.82466647 14.7465241,6.86333333 C14.7850269,6.90200019 14.8042781,6.94711085 14.8042781,6.99866667 L14.8042781,7.772 Z M14.7850267,13.9393333 C14.7850267,13.9908891 14.7657756,14.0359998 14.7272727,14.0746667 C14.6887699,14.1133335 14.6438505,14.1326667 14.5925134,14.1326667 L14.1304813,14.1326667 C14.0791441,14.1326667 14.0342248,14.1133335 13.9957219,14.0746667 C13.9572191,14.0359998 13.9379679,13.9908891 13.9379679,13.9393333 L13.9379679,9.00933333 C13.9379679,8.95777752 13.9572191,8.91266686 13.9957219,8.874 C14.0342248,8.83533314 14.0791441,8.816 14.1304813,8.816 L14.5925134,8.816 C14.6438505,8.816 14.6887699,8.83533314 14.7272727,8.874 C14.7657756,8.91266686 14.7850267,8.95777752 14.7850267,9.00933333 L14.7850267,13.9393333 Z M19.4823529,13.8813333 C19.4823529,13.9457781 19.4695188,13.9941109 19.4438503,14.0263333 C19.4181817,14.0585557 19.3668453,14.081111 19.2898396,14.094 C19.129411,14.1262224 18.9449208,14.1519999 18.7363636,14.1713333 C18.5278064,14.1906668 18.3112311,14.2003333 18.086631,14.2003333 C17.7593567,14.2003333 17.4689852,14.143945 17.215508,14.0311667 C16.9620308,13.9183883 16.7470597,13.760501 16.5705882,13.5575 C16.3941168,13.354499 16.260963,13.1080014 16.171123,12.818 C16.081283,12.5279985 16.0363636,12.2057795 16.0363636,11.8513333 L16.0363636,11.0973333 C16.0363636,10.7428871 16.081283,10.4206681 16.171123,10.1306667 C16.260963,9.84066522 16.3925125,9.59416768 16.5657754,9.39116667 C16.7390383,9.18816565 16.9540094,9.03027834 17.2106952,8.9175 C17.467381,8.80472166 17.7593567,8.74833333 18.086631,8.74833333 C18.3112311,8.74833333 18.5278064,8.7579999 18.7363636,8.77733333 C18.9449208,8.79666676 19.129411,8.82244428 19.2898396,8.85466667 C19.3668453,8.86755562 19.4181817,8.88849985 19.4438503,8.9175 C19.4695188,8.94650014 19.4823529,8.99644409 19.4823529,9.06733333 L19.4823529,9.41533333 C19.4823529,9.46688915 19.4663103,9.50394433 19.4342246,9.5265 C19.4021389,9.54905567 19.3636366,9.56033333 19.3187166,9.56033333 L19.2802139,9.56033333 C19.0684481,9.53455543 18.8759367,9.51683338 18.7026738,9.50716667 C18.5294109,9.49749995 18.3240654,9.49266667 18.086631,9.49266667 C17.7016024,9.49266667 17.4048139,9.62316536 17.1962567,9.88416667 C16.9876995,10.145168 16.8834225,10.5495528 16.8834225,11.0973333 L16.8834225,11.8513333 C16.8834225,12.3991138 16.9860952,12.8034987 17.1914439,13.0645 C17.3967925,13.3255013 17.6951852,13.456 18.086631,13.456 C18.3240654,13.456 18.5294109,13.4511667 18.7026738,13.4415 C18.8759367,13.4318333 19.0684481,13.4141112 19.2802139,13.3883333 L19.3187166,13.3883333 C19.3636366,13.3883333 19.4021389,13.399611 19.4342246,13.4221667 C19.4663103,13.4447223 19.4823529,13.4817775 19.4823529,13.5333333 L19.4823529,13.8813333 Z M24.2470588,13.9393333 C24.2470588,13.9908891 24.2278077,14.0359998 24.1893048,14.0746667 C24.1508019,14.1133335 24.1058826,14.1326667 24.0545455,14.1326667 L23.6117647,14.1326667 C23.5604276,14.1326667 23.5155082,14.1133335 23.4770053,14.0746667 C23.4385025,14.0359998 23.4192513,13.9908891 23.4192513,13.9393333 L23.4192513,13.7266667 C23.1882341,13.8620007 22.9508034,13.9747773 22.7069519,14.065 C22.4631004,14.1552227 22.2064185,14.2003333 21.9368984,14.2003333 C21.7315498,14.2003333 21.5342255,14.1761669 21.3449198,14.1278333 C21.155614,14.0794998 20.9887708,13.9941117 20.844385,13.8716667 C20.6999993,13.7492216 20.5844924,13.5881121 20.497861,13.3883333 C20.4112295,13.1885546 20.3679144,12.9372237 20.3679144,12.6343333 L20.3679144,12.5183333 C20.3679144,12.2605543 20.408021,12.0333899 20.4882353,11.8368333 C20.5684496,11.6402768 20.6999991,11.4759451 20.8828877,11.3438333 C21.0657763,11.2117216 21.3048114,11.1134448 21.6,11.049 C21.8951886,10.9845552 22.2577519,10.9523333 22.6877005,10.9523333 L23.4,10.9523333 L23.4,10.5656667 C23.4,10.1596646 23.3229954,9.87611192 23.168984,9.715 C23.0149725,9.55388808 22.748665,9.47333333 22.3700535,9.47333333 C22.0556134,9.47333333 21.7796803,9.48138881 21.542246,9.4975 C21.3048116,9.51361119 21.0898405,9.53133324 20.8973262,9.55066667 L20.8491979,9.55066667 C20.8042779,9.55066667 20.7641713,9.5410001 20.728877,9.52166667 C20.6935827,9.50233324 20.6759358,9.46044477 20.6759358,9.396 L20.6759358,9.05766667 C20.6759358,8.95455504 20.7433148,8.89333343 20.8780749,8.874 C21.0770063,8.84177762 21.2935817,8.81277791 21.5278075,8.787 C21.7620333,8.76122209 22.0427791,8.74833333 22.3700535,8.74833333 C23.0374365,8.74833333 23.5171108,8.90944283 23.8090909,9.23166667 C24.101071,9.5538905 24.2470588,9.99855272 24.2470588,10.5656667 L24.2470588,13.9393333 Z M23.4,11.5613333 L22.6877005,11.5613333 C22.398929,11.5613333 22.1582897,11.5790554 21.9657754,11.6145 C21.7732611,11.6499446 21.6224604,11.7047219 21.513369,11.7788333 C21.4042775,11.8529448 21.327273,11.9496105 21.2823529,12.0688333 C21.2374329,12.1880562 21.2149733,12.3346658 21.2149733,12.5086667 L21.2149733,12.6246667 C21.2149733,12.9726684 21.2919778,13.2062772 21.4459893,13.3255 C21.6000008,13.4447228 21.8181804,13.5043333 22.1005348,13.5043333 C22.3251348,13.5043333 22.5401059,13.4721114 22.7454545,13.4076667 C22.9508032,13.3432219 23.1689828,13.2465562 23.4,13.1176667 L23.4,11.5613333 Z M27.9336898,9.31866667 C27.9336898,9.42822277 27.8663108,9.483 27.7315508,9.483 C27.5069507,9.483 27.2903754,9.5136108 27.0818182,9.57483333 C26.873261,9.63605586 26.64706,9.74077704 26.4032086,9.889 L26.4032086,13.9393333 C26.4032086,13.9908891 26.3839574,14.0359998 26.3454545,14.0746667 C26.3069517,14.1133335 26.2620323,14.1326667 26.2106952,14.1326667 L25.7390374,14.1326667 C25.6877003,14.1326667 25.6443852,14.1133335 25.6090909,14.0746667 C25.5737966,14.0359998 25.5561497,13.9908891 25.5561497,13.9393333 L25.5561497,9.00933333 C25.5561497,8.95777752 25.5737966,8.91266686 25.6090909,8.874 C25.6443852,8.83533314 25.6877003,8.816 25.7390374,8.816 L26.1914439,8.816 C26.242781,8.816 26.2860961,8.83533314 26.3213904,8.874 C26.3566847,8.91266686 26.3743316,8.95777752 26.3743316,9.00933333 L26.3743316,9.21233333 C26.618183,9.04477694 26.850801,8.92555591 27.0721925,8.85466667 C27.293584,8.78377742 27.5133679,8.74833333 27.7315508,8.74833333 C27.8663108,8.74833333 27.9336898,8.80633275 27.9336898,8.92233333 L27.9336898,9.31866667 Z M32.6983957,11.5323333 C32.6983957,11.6741118 32.6374338,11.745 32.515508,11.745 L29.2909091,11.745 L29.2909091,11.8803333 C29.2909091,12.4538918 29.4032074,12.8598877 29.6278075,13.0983333 C29.8524075,13.336779 30.186094,13.456 30.628877,13.456 C30.9112314,13.456 31.2112284,13.4463334 31.528877,13.427 C31.8465257,13.4076666 32.1176459,13.381889 32.342246,13.3496667 L32.3903743,13.3496667 C32.4288772,13.3496667 32.464171,13.3593332 32.4962567,13.3786667 C32.5283424,13.3980001 32.544385,13.4334442 32.544385,13.485 L32.544385,13.8136667 C32.544385,13.8781114 32.5315509,13.9280554 32.5058824,13.9635 C32.4802138,13.9989446 32.4288774,14.023111 32.3518717,14.036 C32.0759344,14.0875558 31.8016056,14.1278332 31.528877,14.1568333 C31.2561484,14.1858335 30.9561514,14.2003333 30.628877,14.2003333 C30.3529398,14.2003333 30.0834238,14.1632781 29.8203209,14.0891667 C29.5572179,14.0150552 29.3245999,13.8893898 29.1224599,13.7121667 C28.9203198,13.5349436 28.7566851,13.2981126 28.6315508,13.0016667 C28.5064165,12.7052207 28.4438503,12.3314467 28.4438503,11.8803333 L28.4438503,11.0103333 C28.4438503,10.3143299 28.6267361,9.76333536 28.9925134,9.35733333 C29.3582906,8.9513313 29.8876971,8.74833333 30.5807487,8.74833333 C30.9336916,8.74833333 31.2417099,8.80149947 31.5048128,8.90783333 C31.7679158,9.0141672 31.9876997,9.16561013 32.1641711,9.36216667 C32.3406426,9.5587232 32.4737963,9.79716527 32.5636364,10.0775 C32.6534764,10.3578347 32.6983957,10.6687761 32.6983957,11.0103333 L32.6983957,11.5323333 Z M31.8417112,11.0103333 C31.8417112,10.4625528 31.7374342,10.0726678 31.528877,9.84066667 C31.3203198,9.60866551 31.0042802,9.49266667 30.5807487,9.49266667 C30.1636343,9.49266667 29.8443861,9.61510989 29.6229947,9.86 C29.4016032,10.1048901 29.2909091,10.4883307 29.2909091,11.0103333 L29.2909091,11.0973333 L31.8417112,11.0973333 L31.8417112,11.0103333 Z M36.3754011,13.9876667 C36.3754011,14.0778893 36.3176476,14.1326666 36.202139,14.152 C36.1058819,14.164889 36.0000006,14.1761666 35.884492,14.1858333 C35.7689834,14.1955 35.6663106,14.2003333 35.5764706,14.2003333 C35.3518705,14.2003333 35.1577548,14.1826113 34.9941176,14.1471667 C34.8304805,14.111722 34.6957225,14.0456671 34.5898396,13.949 C34.4839567,13.8523328 34.4037436,13.7202231 34.3491979,13.5526667 C34.2946521,13.3851103 34.2673797,13.1692235 34.2673797,12.905 L34.2673797,9.53133333 L33.3336898,9.425 C33.2117641,9.41211105 33.1508021,9.35411163 33.1508021,9.251 L33.1508021,8.99 C33.1508021,8.87399942 33.2117641,8.816 33.3336898,8.816 L34.2673797,8.816 L34.2673797,7.86866667 C34.2673797,7.75911056 34.3251331,7.69466676 34.4406417,7.67533333 L34.9411765,7.598 L34.9700535,7.598 C35.0085563,7.598 35.0422458,7.61249985 35.071123,7.6415 C35.1000001,7.67050014 35.1144385,7.71077752 35.1144385,7.76233333 L35.1144385,8.816 L36.1540107,8.816 C36.2053479,8.816 36.2502672,8.83533314 36.2887701,8.874 C36.3272729,8.91266686 36.3465241,8.95777752 36.3465241,9.00933333 L36.3465241,9.338 C36.3465241,9.38955581 36.3272729,9.43466647 36.2887701,9.47333333 C36.2502672,9.51200019 36.2053479,9.53133333 36.1540107,9.53133333 L35.1144385,9.53133333 L35.1144385,12.905 C35.1144385,13.1692235 35.1529408,13.3367774 35.2299465,13.4076667 C35.3069523,13.4785559 35.4417103,13.514 35.6342246,13.514 L36.173262,13.514 C36.3080221,13.514 36.3754011,13.5591107 36.3754011,13.6493333 L36.3754011,13.9876667 Z M43.8064171,12.267 C43.8064171,12.4990012 43.7711233,12.7309988 43.7005348,12.963 C43.6299462,13.1950012 43.506418,13.4028324 43.3299465,13.5865 C43.1534751,13.7701676 42.9112315,13.9183883 42.6032086,14.0311667 C42.2951856,14.143945 41.9037457,14.2003333 41.428877,14.2003333 C41.0887684,14.2003333 40.7903756,14.1858335 40.5336898,14.1568333 C40.2770041,14.1278332 40.0427818,14.0972224 39.831016,14.065 C39.7475932,14.052111 39.6962568,14.0327779 39.6770053,14.007 C39.6577539,13.9812221 39.6481283,13.9425558 39.6481283,13.891 L39.6481283,13.5043333 C39.6481283,13.4527775 39.664171,13.4141112 39.6962567,13.3883333 C39.7283424,13.3625554 39.7668447,13.3496667 39.8117647,13.3496667 L39.8406417,13.3496667 C39.9497332,13.3625556 40.0732613,13.3722222 40.2112299,13.3786667 C40.3491986,13.3851111 40.4903736,13.3899444 40.6347594,13.3931667 C40.7791451,13.3963889 40.9203202,13.3996111 41.0582888,13.4028333 C41.1962574,13.4060556 41.3197856,13.4076667 41.428877,13.4076667 C41.7176485,13.4076667 41.9566835,13.3802781 42.1459893,13.3255 C42.3352951,13.2707219 42.4844914,13.1933894 42.5935829,13.0935 C42.7026743,12.9936106 42.7796789,12.8727785 42.8245989,12.731 C42.8695189,12.5892215 42.8919786,12.4345564 42.8919786,12.267 C42.8919786,12.1445549 42.8727275,12.0333894 42.8342246,11.9335 C42.7957217,11.8336106 42.7315513,11.7353338 42.6417112,11.6386667 C42.5518712,11.5419995 42.4331558,11.4405005 42.2855615,11.3341667 C42.1379672,11.2278328 41.9550813,11.1070007 41.7368984,10.9716667 L40.8032086,10.4013333 C40.3604256,10.1306653 40.0283434,9.85839026 39.8069519,9.5845 C39.5855604,9.31060974 39.4748663,8.98033527 39.4748663,8.59366667 C39.4748663,8.00721929 39.6737948,7.57544583 40.0716578,7.29833333 C40.4695207,7.02122084 41.0374295,6.88266667 41.7754011,6.88266667 C41.9165782,6.88266667 42.0657746,6.88588886 42.2229947,6.89233333 C42.3802147,6.89877781 42.5342238,6.90683328 42.6850267,6.9165 C42.8358296,6.92616671 42.978609,6.93905547 43.113369,6.95516667 C43.248129,6.97127786 43.3604274,6.98577771 43.4502674,6.99866667 C43.5593588,7.0180001 43.6139037,7.07277733 43.6139037,7.163 L43.6139037,7.57866667 C43.6139037,7.68177829 43.5593588,7.73333333 43.4502674,7.73333333 L43.431016,7.73333333 C43.2192503,7.72044438 42.9609641,7.70755562 42.6561497,7.69466667 C42.3513354,7.68177771 42.0577554,7.67533333 41.7754011,7.67533333 C41.2748638,7.67533333 40.9139049,7.73977713 40.6925134,7.86866667 C40.4711219,7.9975562 40.3604278,8.23922045 40.3604278,8.59366667 C40.3604278,8.81922335 40.4438494,9.01577694 40.6106952,9.18333333 C40.7775409,9.35088973 41.0438484,9.54422113 41.4096257,9.76333333 L42.2951872,10.295 C42.5711244,10.4625564 42.8053466,10.6236659 42.997861,10.7783333 C43.1903753,10.9330008 43.347593,11.0876659 43.4695187,11.2423333 C43.5914445,11.3970008 43.6780746,11.5581103 43.7294118,11.7256667 C43.7807489,11.8932231 43.8064171,12.0736657 43.8064171,12.267 Z M45.9144385,7.772 C45.9144385,7.82355581 45.8951874,7.86866647 45.8566845,7.90733333 C45.8181816,7.94600019 45.7732623,7.96533333 45.7219251,7.96533333 L45.231016,7.96533333 C45.1796789,7.96533333 45.1347596,7.94600019 45.0962567,7.90733333 C45.0577538,7.86866647 45.0385027,7.82355581 45.0385027,7.772 L45.0385027,6.99866667 C45.0385027,6.94711085 45.0577538,6.90200019 45.0962567,6.86333333 C45.1347596,6.82466647 45.1796789,6.80533333 45.231016,6.80533333 L45.7219251,6.80533333 C45.7732623,6.80533333 45.8181816,6.82466647 45.8566845,6.86333333 C45.8951874,6.90200019 45.9144385,6.94711085 45.9144385,6.99866667 L45.9144385,7.772 Z M45.8951872,13.9393333 C45.8951872,13.9908891 45.875936,14.0359998 45.8374332,14.0746667 C45.7989303,14.1133335 45.754011,14.1326667 45.7026738,14.1326667 L45.2406417,14.1326667 C45.1893046,14.1326667 45.1443852,14.1133335 45.1058824,14.0746667 C45.0673795,14.0359998 45.0481283,13.9908891 45.0481283,13.9393333 L45.0481283,9.00933333 C45.0481283,8.95777752 45.0673795,8.91266686 45.1058824,8.874 C45.1443852,8.83533314 45.1893046,8.816 45.2406417,8.816 L45.7026738,8.816 C45.754011,8.816 45.7989303,8.83533314 45.8374332,8.874 C45.875936,8.91266686 45.8951872,8.95777752 45.8951872,9.00933333 L45.8951872,13.9393333 Z M50.6695187,12.7986667 C50.6695187,13.0435568 50.6262036,13.2546102 50.5395722,13.4318333 C50.4529407,13.6090564 50.3310168,13.754055 50.1737968,13.8668333 C50.0165768,13.9796117 49.8272738,14.0633886 49.6058824,14.1181667 C49.3844909,14.1729447 49.1390388,14.2003333 48.8695187,14.2003333 C48.7796787,14.2003333 48.6721931,14.1987222 48.5470588,14.1955 C48.4219245,14.1922778 48.290375,14.1842223 48.1524064,14.1713333 C48.0144378,14.1584444 47.874867,14.1439445 47.7336898,14.1278333 C47.5925127,14.1117221 47.4641717,14.0875557 47.3486631,14.0553333 C47.2139031,14.0231109 47.1465241,13.9586671 47.1465241,13.862 L47.1465241,13.5236667 C47.1465241,13.4785553 47.1625667,13.4431112 47.1946524,13.4173333 C47.2267381,13.3915554 47.2684489,13.3786667 47.3197861,13.3786667 L47.3582888,13.3786667 C47.4737974,13.3915556 47.6005341,13.4044444 47.7385027,13.4173333 C47.8764713,13.4302223 48.0160421,13.4415 48.1572193,13.4511667 C48.2983964,13.4608334 48.4299459,13.4688889 48.5518717,13.4753333 C48.6737974,13.4817778 48.7796787,13.485 48.8695187,13.485 C49.1839588,13.485 49.4213896,13.4366671 49.5818182,13.34 C49.7422468,13.2433328 49.8224599,13.0628902 49.8224599,12.7986667 C49.8224599,12.6504437 49.7711235,12.5215561 49.6684492,12.412 C49.5657749,12.3024439 49.376472,12.1638897 49.1005348,11.9963333 L48.1283422,11.4163333 C47.8331536,11.235888 47.5957228,11.0377233 47.4160428,10.8218333 C47.2363627,10.6059434 47.1465241,10.3433349 47.1465241,10.034 C47.1465241,9.78266541 47.1914434,9.57483416 47.2812834,9.4105 C47.3711234,9.24616585 47.4930474,9.11405605 47.6470588,9.01416667 C47.8010703,8.91427728 47.9839562,8.84500019 48.1957219,8.80633333 C48.4074877,8.76766647 48.6385014,8.74833333 48.8887701,8.74833333 C49.1582901,8.74833333 49.4197848,8.759611 49.673262,8.78216667 C49.9267392,8.80472233 50.1657743,8.83533314 50.3903743,8.874 C50.5123001,8.89333343 50.573262,8.95777723 50.573262,9.06733333 L50.573262,9.38633333 C50.573262,9.49588944 50.5187171,9.55066667 50.4096257,9.55066667 L50.3807487,9.55066667 C50.2139029,9.53777771 49.9909105,9.52166676 49.7117647,9.50233333 C49.4326189,9.4829999 49.1582901,9.47333333 48.8887701,9.47333333 C48.61925,9.47333333 48.4026746,9.50555523 48.2390374,9.57 C48.0754003,9.63444477 47.9935829,9.78910989 47.9935829,10.034 C47.9935829,10.182223 48.0481278,10.3094995 48.1572193,10.4158333 C48.2663107,10.5221672 48.433154,10.6397771 48.657754,10.7686667 L49.6106952,11.339 C50.0085581,11.5774456 50.2844912,11.8094433 50.4385027,12.035 C50.5925141,12.2605567 50.6695187,12.5151097 50.6695187,12.7986667 Z M54.4909091,13.9876667 C54.4909091,14.0778893 54.4331557,14.1326666 54.3176471,14.152 C54.2213899,14.164889 54.1155086,14.1761666 54,14.1858333 C53.8844914,14.1955 53.7818186,14.2003333 53.6919786,14.2003333 C53.4673786,14.2003333 53.2732629,14.1826113 53.1096257,14.1471667 C52.9459885,14.111722 52.8112305,14.0456671 52.7053476,13.949 C52.5994647,13.8523328 52.5192516,13.7202231 52.4647059,13.5526667 C52.4101602,13.3851103 52.3828877,13.1692235 52.3828877,12.905 L52.3828877,9.53133333 L51.4491979,9.425 C51.3272721,9.41211105 51.2663102,9.35411163 51.2663102,9.251 L51.2663102,8.99 C51.2663102,8.87399942 51.3272721,8.816 51.4491979,8.816 L52.3828877,8.816 L52.3828877,7.86866667 C52.3828877,7.75911056 52.4406411,7.69466676 52.5561497,7.67533333 L53.0566845,7.598 L53.0855615,7.598 C53.1240644,7.598 53.1577539,7.61249985 53.186631,7.6415 C53.2155082,7.67050014 53.2299465,7.71077752 53.2299465,7.76233333 L53.2299465,8.816 L54.2695187,8.816 C54.3208559,8.816 54.3657752,8.83533314 54.4042781,8.874 C54.4427809,8.91266686 54.4620321,8.95777752 54.4620321,9.00933333 L54.4620321,9.338 C54.4620321,9.38955581 54.4427809,9.43466647 54.4042781,9.47333333 C54.3657752,9.51200019 54.3208559,9.53133333 54.2695187,9.53133333 L53.2299465,9.53133333 L53.2299465,12.905 C53.2299465,13.1692235 53.2684488,13.3367774 53.3454545,13.4076667 C53.4224603,13.4785559 53.5572183,13.514 53.7497326,13.514 L54.2887701,13.514 C54.4235301,13.514 54.4909091,13.5591107 54.4909091,13.6493333 L54.4909091,13.9876667 Z M59.4673797,11.5323333 C59.4673797,11.6741118 59.4064177,11.745 59.284492,11.745 L56.059893,11.745 L56.059893,11.8803333 C56.059893,12.4538918 56.1721914,12.8598877 56.3967914,13.0983333 C56.6213915,13.336779 56.955078,13.456 57.397861,13.456 C57.6802153,13.456 57.9802123,13.4463334 58.297861,13.427 C58.6155096,13.4076666 58.8866299,13.381889 59.1112299,13.3496667 L59.1593583,13.3496667 C59.1978612,13.3496667 59.2331549,13.3593332 59.2652406,13.3786667 C59.2973264,13.3980001 59.313369,13.4334442 59.313369,13.485 L59.313369,13.8136667 C59.313369,13.8781114 59.3005349,13.9280554 59.2748663,13.9635 C59.2491977,13.9989446 59.1978613,14.023111 59.1208556,14.036 C58.8449184,14.0875558 58.5705896,14.1278332 58.297861,14.1568333 C58.0251323,14.1858335 57.7251353,14.2003333 57.397861,14.2003333 C57.1219238,14.2003333 56.8524077,14.1632781 56.5893048,14.0891667 C56.3262019,14.0150552 56.0935839,13.8893898 55.8914439,13.7121667 C55.6893038,13.5349436 55.5256691,13.2981126 55.4005348,13.0016667 C55.2754004,12.7052207 55.2128342,12.3314467 55.2128342,11.8803333 L55.2128342,11.0103333 C55.2128342,10.3143299 55.3957201,9.76333536 55.7614973,9.35733333 C56.1272746,8.9513313 56.656681,8.74833333 57.3497326,8.74833333 C57.7026756,8.74833333 58.0106939,8.80149947 58.2737968,8.90783333 C58.5368997,9.0141672 58.7566836,9.16561013 58.9331551,9.36216667 C59.1096266,9.5587232 59.2427803,9.79716527 59.3326203,10.0775 C59.4224603,10.3578347 59.4673797,10.6687761 59.4673797,11.0103333 L59.4673797,11.5323333 Z M58.6106952,11.0103333 C58.6106952,10.4625528 58.5064182,10.0726678 58.297861,9.84066667 C58.0893038,9.60866551 57.7732641,9.49266667 57.3497326,9.49266667 C56.9326182,9.49266667 56.6133701,9.61510989 56.3919786,9.86 C56.1705871,10.1048901 56.059893,10.4883307 56.059893,11.0103333 L56.059893,11.0973333 L58.6106952,11.0973333 L58.6106952,11.0103333 Z M66.9946524,13.9393333 C66.9946524,13.9908891 66.9754013,14.0359998 66.9368984,14.0746667 C66.8983955,14.1133335 66.8534762,14.1326667 66.802139,14.1326667 L66.340107,14.1326667 C66.2887698,14.1326667 66.2438505,14.1133335 66.2053476,14.0746667 C66.1668447,14.0359998 66.1475936,13.9908891 66.1475936,13.9393333 L66.1475936,10.5173333 C66.1475936,10.3175546 66.1251339,10.1500007 66.0802139,10.0146667 C66.0352939,9.87933266 65.9743319,9.77300039 65.8973262,9.69566667 C65.8203205,9.61833295 65.7272733,9.56355572 65.6181818,9.53133333 C65.5090904,9.49911095 65.3935835,9.483 65.2716578,9.483 C65.0983949,9.483 64.9139047,9.50877752 64.7181818,9.56033333 C64.5224589,9.61188915 64.3315517,9.67311076 64.1454545,9.744 C64.2032088,9.95666773 64.2320856,10.2079985 64.2320856,10.498 L64.2320856,13.9393333 C64.2320856,13.9908891 64.2160429,14.0359998 64.1839572,14.0746667 C64.1518715,14.1133335 64.1101607,14.1326667 64.0588235,14.1326667 L63.5486631,14.1326667 C63.4973259,14.1326667 63.4572194,14.1133335 63.4283422,14.0746667 C63.3994651,14.0359998 63.3850267,13.9908891 63.3850267,13.9393333 L63.3850267,10.498 C63.3850267,10.2853323 63.3705884,10.1129451 63.3417112,9.98083333 C63.3128341,9.84872156 63.2663105,9.74561148 63.202139,9.6715 C63.1379676,9.59738852 63.0593588,9.54744457 62.9663102,9.52166667 C62.8732616,9.49588876 62.765776,9.483 62.6438503,9.483 C62.4705874,9.483 62.2828887,9.52005518 62.0807487,9.59416667 C61.8786086,9.66827815 61.6748673,9.75688837 61.4695187,9.86 L61.4695187,13.9393333 C61.4695187,13.9908891 61.4534761,14.0359998 61.4213904,14.0746667 C61.3893047,14.1133335 61.3475938,14.1326667 61.2962567,14.1326667 L60.7860963,14.1326667 C60.7347591,14.1326667 60.6946526,14.1133335 60.6657754,14.0746667 C60.6368983,14.0359998 60.6224599,13.9908891 60.6224599,13.9393333 L60.6224599,9.00933333 C60.6224599,8.95777752 60.6401068,8.91266686 60.6754011,8.874 C60.7106954,8.83533314 60.7540104,8.816 60.8053476,8.816 L61.286631,8.816 C61.3379682,8.816 61.3812832,8.83533314 61.4165775,8.874 C61.4518718,8.91266686 61.4695187,8.95777752 61.4695187,9.00933333 L61.4695187,9.193 C61.662033,9.07055494 61.8770042,8.96422267 62.1144385,8.874 C62.3518728,8.78377733 62.6053462,8.73866667 62.8748663,8.73866667 C63.0802149,8.73866667 63.2614965,8.76927747 63.4187166,8.8305 C63.5759366,8.89172253 63.7155074,8.99322151 63.8374332,9.135 C64.1069532,9.00611047 64.3780735,8.90783367 64.6508021,8.84016667 C64.9235308,8.77249966 65.1850255,8.73866667 65.4352941,8.73866667 C65.653477,8.73866667 65.8572183,8.76766638 66.0465241,8.82566667 C66.2358298,8.88366696 66.4010688,8.98194375 66.542246,9.1205 C66.6834232,9.25905625 66.7941172,9.44272108 66.8743316,9.6715 C66.9545459,9.90027892 66.9946524,10.1822205 66.9946524,10.5173333 L66.9946524,13.9393333 Z M69.2470588,13.9393333 C69.2470588,13.9908891 69.2310162,14.0359998 69.1989305,14.0746667 C69.1668448,14.1133335 69.1251339,14.1326667 69.0737968,14.1326667 L68.573262,14.1326667 C68.5219249,14.1326667 68.4802141,14.1133335 68.4481283,14.0746667 C68.4160426,14.0359998 68.4,13.9908891 68.4,13.9393333 L68.4,7.047 C68.4,6.99544419 68.4160426,6.95194462 68.4481283,6.9165 C68.4802141,6.88105538 68.5219249,6.86333333 68.573262,6.86333333 L69.0737968,6.86333333 C69.1251339,6.86333333 69.1668448,6.88105538 69.1989305,6.9165 C69.2310162,6.95194462 69.2470588,6.99544419 69.2470588,7.047 L69.2470588,13.9393333 Z M74.7336898,11.5323333 C74.7336898,11.6741118 74.6727279,11.745 74.5508021,11.745 L71.3262032,11.745 L71.3262032,11.8803333 C71.3262032,12.4538918 71.4385016,12.8598877 71.6631016,13.0983333 C71.8877017,13.336779 72.2213882,13.456 72.6641711,13.456 C72.9465255,13.456 73.2465225,13.4463334 73.5641711,13.427 C73.8818198,13.4076666 74.1529401,13.381889 74.3775401,13.3496667 L74.4256684,13.3496667 C74.4641713,13.3496667 74.4994651,13.3593332 74.5315508,13.3786667 C74.5636365,13.3980001 74.5796791,13.4334442 74.5796791,13.485 L74.5796791,13.8136667 C74.5796791,13.8781114 74.566845,13.9280554 74.5411765,13.9635 C74.5155079,13.9989446 74.4641715,14.023111 74.3871658,14.036 C74.1112286,14.0875558 73.8368998,14.1278332 73.5641711,14.1568333 C73.2914425,14.1858335 72.9914455,14.2003333 72.6641711,14.2003333 C72.3882339,14.2003333 72.1187179,14.1632781 71.855615,14.0891667 C71.5925121,14.0150552 71.3598941,13.8893898 71.157754,13.7121667 C70.955614,13.5349436 70.7919792,13.2981126 70.6668449,13.0016667 C70.5417106,12.7052207 70.4791444,12.3314467 70.4791444,11.8803333 L70.4791444,11.0103333 C70.4791444,10.3143299 70.6620303,9.76333536 71.0278075,9.35733333 C71.3935847,8.9513313 71.9229912,8.74833333 72.6160428,8.74833333 C72.9689857,8.74833333 73.277004,8.80149947 73.540107,8.90783333 C73.8032099,9.0141672 74.0229938,9.16561013 74.1994652,9.36216667 C74.3759367,9.5587232 74.5090905,9.79716527 74.5989305,10.0775 C74.6887705,10.3578347 74.7336898,10.6687761 74.7336898,11.0103333 L74.7336898,11.5323333 Z M73.8770053,11.0103333 C73.8770053,10.4625528 73.7727283,10.0726678 73.5641711,9.84066667 C73.3556139,9.60866551 73.0395743,9.49266667 72.6160428,9.49266667 C72.1989284,9.49266667 71.8796803,9.61510989 71.6582888,9.86 C71.4368973,10.1048901 71.3262032,10.4883307 71.3262032,11.0103333 L71.3262032,11.0973333 L73.8770053,11.0973333 L73.8770053,11.0103333 Z M78.2663102,9.31866667 C78.2663102,9.42822277 78.1989312,9.483 78.0641711,9.483 C77.8395711,9.483 77.6229957,9.5136108 77.4144385,9.57483333 C77.2058813,9.63605586 76.9796804,9.74077704 76.7358289,9.889 L76.7358289,13.9393333 C76.7358289,13.9908891 76.7165777,14.0359998 76.6780749,14.0746667 C76.639572,14.1133335 76.5946527,14.1326667 76.5433155,14.1326667 L76.0716578,14.1326667 C76.0203206,14.1326667 75.9770055,14.1133335 75.9417112,14.0746667 C75.9064169,14.0359998 75.8887701,13.9908891 75.8887701,13.9393333 L75.8887701,9.00933333 C75.8887701,8.95777752 75.9064169,8.91266686 75.9417112,8.874 C75.9770055,8.83533314 76.0203206,8.816 76.0716578,8.816 L76.5240642,8.816 C76.5754013,8.816 76.6187164,8.83533314 76.6540107,8.874 C76.689305,8.91266686 76.7069519,8.95777752 76.7069519,9.00933333 L76.7069519,9.21233333 C76.9508034,9.04477694 77.1834214,8.92555591 77.4048128,8.85466667 C77.6262043,8.78377742 77.8459882,8.74833333 78.0641711,8.74833333 C78.1989312,8.74833333 78.2663102,8.80633275 78.2663102,8.92233333 L78.2663102,9.31866667 Z M80.1529412,7.772 C80.1529412,7.82355581 80.13369,7.86866647 80.0951872,7.90733333 C80.0566843,7.94600019 80.011765,7.96533333 79.9604278,7.96533333 L79.4695187,7.96533333 C79.4181816,7.96533333 79.3732622,7.94600019 79.3347594,7.90733333 C79.2962565,7.86866647 79.2770053,7.82355581 79.2770053,7.772 L79.2770053,6.99866667 C79.2770053,6.94711085 79.2962565,6.90200019 79.3347594,6.86333333 C79.3732622,6.82466647 79.4181816,6.80533333 79.4695187,6.80533333 L79.9604278,6.80533333 C80.011765,6.80533333 80.0566843,6.82466647 80.0951872,6.86333333 C80.13369,6.90200019 80.1529412,6.94711085 80.1529412,6.99866667 L80.1529412,7.772 Z M80.1336898,13.9393333 C80.1336898,13.9908891 80.1144387,14.0359998 80.0759358,14.0746667 C80.037433,14.1133335 79.9925136,14.1326667 79.9411765,14.1326667 L79.4791444,14.1326667 C79.4278072,14.1326667 79.3828879,14.1133335 79.344385,14.0746667 C79.3058822,14.0359998 79.286631,13.9908891 79.286631,13.9393333 L79.286631,9.00933333 C79.286631,8.95777752 79.3058822,8.91266686 79.344385,8.874 C79.3828879,8.83533314 79.4278072,8.816 79.4791444,8.816 L79.9411765,8.816 C79.9925136,8.816 80.037433,8.83533314 80.0759358,8.874 C80.1144387,8.91266686 80.1336898,8.95777752 80.1336898,9.00933333 L80.1336898,13.9393333 Z"/>
  </defs>
  <g fill="none" fill-rule="evenodd">
    <path fill="#3B3735" fill-rule="nonzero" d="M66.4941176,39.0533333 L66.4941176,38.5893333 C66.4444413,35.3936853 67.4609771,32.27324 69.3818182,29.725 C71.2638144,27.1770749 73.9518396,25.3467496 77.0053476,24.534 C78.3786096,24.2246667 79.0620321,23.4867778 79.055615,22.3203333 C79.055615,20.6383333 78.3721925,19.952 77.0053476,20.2613333 C68.4336435,22.1789339 62.3316467,29.8087995 62.3165775,38.628 L62.3165775,38.9373333 C62.3608758,42.1440427 61.3453364,45.2750275 59.428877,47.8403333 C57.5685351,50.3970678 54.8968003,52.2414959 51.8534759,53.07 C50.4352941,53.3277778 49.7262032,54.0398889 49.7262032,55.2063333 C49.7086223,55.823944 49.9253909,56.4251884 50.3326203,56.8883333 C50.7023929,57.3332532 51.3016746,57.5122798 51.8534759,57.3426667 C56.0069423,56.5120279 59.7299737,54.2227725 62.3550802,50.8853333 C65.0897715,47.5599026 66.5569605,43.3657439 66.4941176,39.0533333 Z M80.4994652,36.5303333 C81.6160428,36.5303333 82.3251337,35.844 82.626738,34.4713333 C84.3896123,28.1718472 90.1163233,23.8239346 96.6320856,23.838 C100.512075,23.8225067 104.237605,25.3635372 106.981194,28.1188117 C109.724783,30.8740863 111.259278,34.6154842 111.24385,38.512 C111.245723,44.0732614 108.112917,49.1563925 103.155797,51.6352664 C98.1986763,54.1141402 92.2715159,53.5615649 87.8534759,50.2086667 C85.2891885,48.295492 83.4059985,45.6044141 82.4823529,42.5333333 C82.3796791,41.1606667 81.6930481,40.4743333 80.4224599,40.4743333 C78.7475936,40.4743333 78.0609626,41.1606667 78.3625668,42.5333333 C79.2749059,46.7324283 81.6000439,50.4876118 84.9465241,53.1666667 C92.4235597,59.1170156 103.150564,58.5106882 109.915508,51.7553333 C113.510609,48.2851165 115.508354,43.4708072 115.431016,38.4636667 C115.508354,33.4565261 113.510609,28.6422168 109.915508,25.172 C105.079435,20.3046666 97.9843002,18.474924 91.4113736,20.4000253 C84.838447,22.3251265 79.8350766,27.6983206 78.3625668,34.4133333 C78.0609626,35.7924444 78.7700535,36.482 80.4898396,36.482 L80.4994652,36.5303333 Z M121.678075,19.0336667 L121.678075,55.767 C121.780749,56.7852222 122.46738,57.2943333 123.737968,57.2943333 C125.008556,57.2943333 125.695187,56.7852222 125.797861,55.767 L125.797861,23.867 L136.982888,23.867 C137.996791,23.7638889 138.503743,23.0775556 138.503743,21.808 C138.503743,20.5384444 137.996791,19.8521111 136.982888,19.749 L125.797861,19.749 L125.797861,18.9853333 C125.819385,12.4729967 130.142308,6.76611338 136.386096,5.00733333 C137.759358,4.756 138.445989,4.04388889 138.445989,2.871 C138.445989,1.13744444 137.759358,0.425333333 136.386096,0.734666667 C132.242178,1.61351882 128.530446,3.90949326 125.884492,7.23066667 C123.126577,10.5497334 121.641442,14.749825 121.697326,19.0723333 L121.678075,19.0336667 Z M159.054545,55.1676667 C158.989453,55.7518617 159.192561,56.3340644 159.606464,56.7497307 C160.020367,57.165397 160.600101,57.3693692 161.181818,57.304 C162.503743,57.304 163.216043,56.5918889 163.318717,55.1676667 L163.318717,26.593 C163.318717,24.8594444 164.409626,23.9926667 166.591444,23.9926667 L177.55508,23.9926667 C179.024599,23.8895556 179.759358,23.1774444 179.759358,21.8563333 C179.759358,20.5352222 179.024599,19.8231111 177.55508,19.72 L144.442781,19.72 C142.973262,19.8231111 142.238503,20.5352222 142.238503,21.8563333 C142.238503,23.1774444 142.973262,23.8895556 144.442781,23.9926667 L155.858824,23.9926667 C157.989305,24.2504444 159.054545,25.1913333 159.054545,26.8153333 L159.054545,55.1676667 Z M51.5358289,40.339 C51.543555,40.9182902 51.3198053,41.4765307 50.9146083,41.8889034 C50.5094114,42.301276 49.9565642,42.5333853 49.3796791,42.5333333 L37.7037433,42.5333333 C36.5129347,42.5333333 35.5475936,41.5638806 35.5475936,40.368 L35.5475936,39.8943333 C35.5398674,39.3150431 35.7636172,38.7568026 36.1688141,38.3444299 C36.5740111,37.9320573 37.1268582,37.699948 37.7037433,37.7 L49.3796791,37.7 C49.9515256,37.7 50.4999507,37.9281327 50.9043072,38.3342114 C51.3086638,38.7402902 51.5358289,39.2910512 51.5358289,39.8653333 L51.5358289,40.339 Z"/>
    <path fill="#ED6E26" d="M37.7614973,21.8563333 C37.7614973,23.1806667 37.0203209,23.896 35.5572193,23.9926667 L24.5935829,23.9926667 C22.4117647,23.9926667 21.3208556,24.8594444 21.3208556,26.593 L21.3208556,55.1676667 C21.2181818,56.5918889 20.5090909,57.304 19.1935829,57.304 C18.6118656,57.3693692 18.0321321,57.165397 17.6182287,56.7497307 C17.2043253,56.3340644 17.0012182,55.7518617 17.0663102,55.1676667 L17.0663102,26.825 C17.0663102,25.1945556 16.0010695,24.2536667 13.8705882,24.0023333 L2.44491979,24.0023333 C0.962566845,23.896 0.240641711,23.2 0.240641711,21.8563333 C0.240641711,20.5126667 0.962566845,19.8263333 2.44491979,19.72 L35.5572193,19.72 C37.0299465,19.8263333 37.7614973,20.532 37.7614973,21.8563333 Z"/>
    <use fill="#000" xlink:href="#logo-tr-a"/>
    <use fill="#3B3735" xlink:href="#logo-tr-a"/>
  </g>
</svg>
